<svg viewBox="0 0 1123.73 301.21" xmlns="http://www.w3.org/2000/svg"><g transform="translate(-83.33 -299.62)"><path d="m380.93 539.73h-50.83a.79.79 0 1 1 0-1.57h49.14l-4.88-4.5h-48.2a21.4 21.4 0 1 0 -.21 21h10.64l1.72 1.56h2.25l4.31-4.83h4.48l2.59 2.24h1.72l2.42-2.41h3.1l2.41 2.06h2.41l2.07-3.1h3.79l3.14 2.82h2.76l7.58-7.59v-3.45zm-83.48 9.72a5.45 5.45 0 1 1 5.44-5.45 5.45 5.45 0 0 1 -5.44 5.45z" fill="#2e7cb0"/><path d="m381 383.93h-50.89a.79.79 0 0 1 0-1.57h49.14l-4.88-4.5h-48.2a21.4 21.4 0 1 0 -.21 21h10.64l1.73 1.55h2.24l4.31-4.83h4.49l2.58 2.24h1.73l2.41-2.41h3.11l2.41 2.07h2.39l2.07-3.11h3.8l3.1 2.76h2.76l7.59-7.58v-3.45zm-83.49 9.72a5.45 5.45 0 1 1 5.44-5.44 5.44 5.44 0 0 1 -5.49 5.44z" fill="#378557"/><g fill="#404343"><path d="m89.12 376.39-1.31 7.49h-2.81l2-7.49zm5.31 0-1.31 7.49h-2.84l2-7.49z"/><path d="m111.54 397.76v-9.85h-10.75v9.85h-2.74v-21.37h2.74v9.1h10.75v-9.1h2.74v21.37z"/><path d="m118.57 390.33v-1.85c0-4.34 2.46-7.44 6.78-7.44s6.78 3.1 6.78 7.63v1.53h-10.86v.3c0 3.13 1.59 5.27 4.27 5.27a3.6 3.6 0 0 0 3.69-2.49h2.68c-.62 2.73-2.8 4.75-6.43 4.75-4.29-.03-6.91-3.03-6.91-7.7zm10.87-2.33c0-2.62-1.61-4.68-4.07-4.68s-4.1 2.08-4.1 4.68z"/><path d="m136.31 375.26h2.69v22.5h-2.68z"/><path d="m144 375.26h2.68v22.5h-2.68z"/><path d="m165 388.78v1.47c0 4.46-2.43 7.78-7 7.78s-7.08-3.32-7.08-7.78v-1.47c0-4.4 2.47-7.74 7.08-7.74s7 3.34 7 7.74zm-11.43.09v1.28c0 3.35 1.55 5.55 4.39 5.55s4.35-2.18 4.35-5.55v-1.28c0-3.37-1.54-5.53-4.35-5.53s-4.35 2.16-4.35 5.53z"/><path d="m168.44 383.88 1.31-7.49h2.84l-2.05 7.49zm5.31 0 1.31-7.49h2.83l-2 7.49z"/><path d="m524.69 375.39-1.31 7.49h-2.84l2.05-7.49zm5.31 0-1.32 7.49h-2.83l2-7.49z"/><path d="m533.16 385.27c0-6.29 2.68-10.33 7.55-10.33s7.5 4 7.5 10.33v1.66c0 6.25-2.62 10.29-7.52 10.29s-7.53-4-7.53-10.29zm2.71 1.63c0 5.06 1.83 7.92 4.82 7.92s4.81-2.86 4.81-7.92v-1.61c0-5.06-1.83-8-4.81-8s-4.82 2.9-4.82 8z"/><path d="m554.14 391.53a4 4 0 0 0 4.21 3.29c3.38 0 5.21-3.4 5.23-8.67h-.11c-.61 1.66-2.55 3.16-5.54 3.16-3.41 0-6.72-2.44-6.72-7.09a7 7 0 0 1 7.2-7.25c4.7 0 7.83 2.94 7.83 10.69 0 7.24-3 11.51-8 11.51-4.45 0-6.64-3.07-6.83-5.64zm4.45-14.21a4.53 4.53 0 0 0 -4.68 4.85 4.41 4.41 0 0 0 4.58 4.81 4.7 4.7 0 0 0 4.75-4.73c0-3.33-2.12-4.93-4.65-4.93z"/><path d="m567.54 380.31h2.85l4.29 13.21h.09l4.61-13.21h2.72l-5.9 16.45h-2.9z"/><path d="m587.83 394.57h-.08v7.66h-2.69v-21.92h2.58v2.36h.08a5.54 5.54 0 0 1 4.86-2.61c3.71 0 6.45 2.85 6.45 7.72v1.51c0 4.81-2.7 7.74-6.56 7.74a5.34 5.34 0 0 1 -4.64-2.46zm8.49-5.48v-1.22c0-3.46-1.54-5.49-4.2-5.49s-4.41 2.2-4.41 5.47v1.24c0 3.37 1.69 5.59 4.49 5.59 2.46 0 4.12-1.97 4.12-5.59z"/><path d="m603.27 374.27h2.73v22.49h-2.68z"/><path d="m611 396.76v-21.37h2.74v21.37z"/><path d="m621.34 389.29a5.39 5.39 0 1 0 10.78 0v-13.9h2.71v14.26c0 4.42-3 7.57-8.11 7.57s-8.09-3.15-8.09-7.57v-14.26h2.71z"/><path d="m647.12 384.49 8.39 12.27h-3.51l-6.95-10.38-2.63 2.87v7.51h-2.74v-21.37h2.74v10.34h.11l9.3-10.34h3.22z"/><path d="m666.05 375.39c4.07 0 6.79 2.68 6.79 6.66s-2.72 6.63-6.79 6.63h-5.05v8.08h-2.72v-21.37zm-5.05 10.88h3.24c3.67 0 5.81-.72 5.81-4.22 0-2.68-1.53-4.23-4.19-4.23h-4.86z"/><path d="m675.41 384.61c0-6.07 3.42-9.67 8.6-9.67s8.53 3.6 8.53 9.67v3.15c0 6-3.4 9.46-8.59 9.46s-8.54-3.42-8.54-9.46zm2.74 3.15c0 4.79 2.54 7 5.83 7s5.82-2.21 5.82-7v-3.16c0-4.78-2.52-7.2-5.82-7.2s-5.83 2.42-5.83 7.2z"/><path d="m698.68 391.53a4 4 0 0 0 4.21 3.29c3.38 0 5.21-3.4 5.23-8.67h-.12c-.61 1.66-2.55 3.16-5.54 3.16-3.42 0-6.72-2.44-6.72-7.09a7 7 0 0 1 7.26-7.22c4.7 0 7.83 2.94 7.83 10.69 0 7.24-3 11.51-8 11.51-4.44 0-6.63-3.07-6.82-5.64zm4.44-14.21a4.54 4.54 0 0 0 -4.68 4.85 4.42 4.42 0 0 0 4.56 4.83 4.69 4.69 0 0 0 4.74-4.73c.03-3.35-2.08-4.95-4.62-4.95z"/><path d="m727.41 396.76h-12.83v-21.37h12.83v2.44h-10.1v6.83h9.53v2.34h-9.53v7.28h10.1z"/><path d="m730.85 382.88 1.32-7.49h2.83l-2 7.49zm5.31 0 1.31-7.49h2.84l-2 7.49z"/><path d="m1114.07 375.51-1.31 7.49h-2.84l2.06-7.49zm5.31 0-1.31 7.49h-2.84l2-7.49z"/><path d="m1136.49 396.88v-9.88h-10.75v9.85h-2.74v-21.34h2.74v9.1h10.75v-9.1h2.74v21.37z"/><path d="m1143.52 389.44v-1.84c0-4.34 2.46-7.44 6.78-7.44s6.78 3.1 6.78 7.63v1.53h-10.86v.3c0 3.13 1.59 5.27 4.27 5.27a3.6 3.6 0 0 0 3.69-2.49h2.68c-.62 2.73-2.8 4.75-6.43 4.75-4.29 0-6.91-3.02-6.91-7.71zm10.87-2.3c0-2.62-1.61-4.68-4.07-4.68s-4.1 2.08-4.1 4.68z"/><path d="m1161.26 374.38h2.68v22.5h-2.68z"/><path d="m1169 374.38h2.68v22.5h-2.68z"/><path d="m1190 387.9v1.47c0 4.46-2.43 7.78-7 7.78s-7.08-3.32-7.08-7.78v-1.47c0-4.4 2.47-7.74 7.08-7.74s7 3.34 7 7.74zm-11.43.09v1.28c0 3.35 1.55 5.54 4.39 5.54s4.35-2.17 4.35-5.54v-1.27c0-3.37-1.54-5.53-4.35-5.53s-4.4 2.15-4.4 5.53z"/><path d="m1193.39 383 1.31-7.49h2.84l-2 7.49zm5.31 0 1.31-7.49h2.83l-2 7.49z"/><path d="m374.84 322.52 7.16-21.37h5l7.12 21.37h-4.52l-1.67-5.5h-7.13l-1.69 5.5zm9.45-17.28-2.61 8.64h5.4l-2.6-8.64z"/><path d="m402.49 305.61c4 0 6.35 2 6.35 5.07h-3.64c-.11-1-.79-2.2-2.79-2.2-1.61 0-2.65.75-2.65 2 0 1.64 2.4 1.92 4.29 2.27 3.06.55 5.29 1.6 5.29 4.66 0 3.42-2.67 5.44-7.07 5.44s-6.77-2-6.77-5h4c.17 1.23 1.23 2.07 3 2.07 1.94 0 2.85-.92 2.85-2 0-1.62-2-1.85-4.12-2.27-3-.63-5.4-1.74-5.4-4.81 0-3.69 3.17-5.23 6.66-5.23z"/><path d="m421.34 322.05-.43 1.14c-1.44 3.82-3.44 5.15-7 5.15a11.73 11.73 0 0 1 -2.1-.17v-3a10.89 10.89 0 0 0 1.35.09c1.88 0 2.74-.61 3-2.14l.15-.6-5.76-16.64h4.56l3.53 12.88h.16l3.62-12.88h4.37c-1.16 3.79-5.42 16.12-5.45 16.17z"/><path d="m429.29 305.91h4v2.38h.22a4.43 4.43 0 0 1 4.35-2.65c2.55 0 4.09 1.15 4.65 2.85h.17c.55-1.41 2.27-2.85 5.06-2.85 3.43 0 5.42 2.21 5.42 5.53v11.35h-4.12v-10.21c0-2.11-1.14-3.22-2.9-3.22s-2.94 1.25-2.94 3.38v10h-4v-10c0-2.4-1.23-3.38-2.91-3.38s-2.93 1.05-2.93 3.35v10.08h-4.1z"/><path d="m457.17 305.91h4v2.38h.22a4.44 4.44 0 0 1 4.35-2.65c2.56 0 4.09 1.15 4.65 2.85h.18c.54-1.41 2.27-2.85 5.05-2.85 3.43 0 5.42 2.21 5.42 5.53v11.35h-4.12v-10.21c0-2.11-1.14-3.22-2.89-3.22s-3 1.25-3 3.38v10h-4v-10c0-2.4-1.24-3.38-2.92-3.38s-2.92 1.05-2.92 3.35v10.08h-4.11z"/><path d="m484.38 314.88v-1.52c0-4.87 3-7.75 7.36-7.75 4.53 0 7.33 3.09 7.33 7.86v1.63h-10.65v.45c0 2.52 1.43 4.12 3.53 4.12a3 3 0 0 0 3.14-2.16h3.82c-.39 2.66-2.55 5.31-7 5.31s-7.53-2.82-7.53-7.94zm10.7-2.4c0-2.14-1.3-3.77-3.31-3.77s-3.35 1.64-3.35 3.77z"/><path d="m503.75 301.93h4v4h3.25v3.19h-3.22v8.19c0 1.66.7 2.16 2.41 2.16h.88v3.05a10.58 10.58 0 0 1 -1.88.14c-4.13 0-5.5-1.39-5.5-4.79v-8.77h-2.35v-3.19h2.43z"/><path d="m514.54 305.91h4.12v2.28h.17a4 4 0 0 1 3.88-2.53 7.31 7.31 0 0 1 1.32.11v3.57a7 7 0 0 0 -1.63-.14c-2.71 0-3.65 1.62-3.65 3.85v9.47h-4.21z"/><path d="m529.15 299.62a2.17 2.17 0 1 1 -2.34 2.17 2.21 2.21 0 0 1 2.34-2.17zm-2.06 6.29h4.12v16.61h-4.12z"/><path d="m534.8 313.44c0-4.6 2.75-7.83 7.39-7.83 4.19 0 6.74 2.66 6.84 5.86h-3.81a2.93 2.93 0 0 0 -2.84-2.57c-2.15 0-3.45 1.75-3.45 4.59v1.31c0 2.93 1.33 4.71 3.46 4.71a2.7 2.7 0 0 0 2.91-2.38h3.81c-.35 3.71-3 5.69-6.94 5.69-4.59 0-7.37-3.17-7.37-8z"/><path d="m567.39 300c-1.86 2.18-3.85 7.33-3.85 13.4a27 27 0 0 0 3.81 14h-3.85c-2.26-2.91-4.17-7.68-4.17-13.94s1.72-10.21 4.31-13.44z"/><path d="m578.76 301.15c4.59 0 7.22 3.12 7.22 7.12s-2.66 7.08-7.27 7.08h-4.27v7.17h-4.23v-21.37zm-4.34 10.85h2.58c2.94 0 4.71-.86 4.71-3.76a3.41 3.41 0 0 0 -3.72-3.75h-3.53z"/><path d="m603.4 322.52h-4v-2.43h-.19c-.52 1.3-2.05 2.68-4.79 2.68-3.4 0-5.68-2-5.68-5.89v-11h4.11v9.88c0 2.74 1.55 3.49 3.18 3.49 1.85 0 3.26-1.21 3.26-3.54v-9.83h4.13z"/><path d="m611.76 320h-.15v2.57h-4.07v-22.57h4.13v8.3h.17a5.18 5.18 0 0 1 4.78-2.63c3.77 0 6.32 2.71 6.32 7.78v1.46c0 5-2.49 7.81-6.34 7.81a5 5 0 0 1 -4.84-2.72zm7-5.16v-1.15c0-3.05-1.39-4.65-3.41-4.65-2.22 0-3.66 1.58-3.66 4.65v1.13c0 3.07 1.42 4.68 3.66 4.68 1.97-.05 3.36-1.68 3.36-4.71z"/><path d="m626.5 300h4.13v22.5h-4.13z"/><path d="m637.05 299.62a2.17 2.17 0 1 1 -2.33 2.17 2.21 2.21 0 0 1 2.33-2.17zm-2 6.29h4.12v16.61h-4.17z"/><path d="m642.7 313.44c0-4.6 2.76-7.83 7.39-7.83 4.2 0 6.75 2.66 6.84 5.86h-3.8a2.94 2.94 0 0 0 -2.85-2.57c-2.15 0-3.45 1.75-3.45 4.59v1.31c0 2.93 1.33 4.71 3.46 4.71a2.71 2.71 0 0 0 2.92-2.38h3.79c-.34 3.71-3 5.69-6.94 5.69-4.58 0-7.37-3.17-7.37-8z"/><path d="m676.25 310.35 8 12.17h-5.08l-6-9.35-2.19 2.49v6.86h-4.22v-21.37h4.22v9.57h.19l8.09-9.57h4.66z"/><path d="m684.75 314.88v-1.52c0-4.87 3-7.75 7.36-7.75s7.33 3.09 7.33 7.86v1.63h-10.65v.45c0 2.52 1.43 4.12 3.52 4.12a3 3 0 0 0 3.15-2.16h3.82c-.39 2.66-2.55 5.31-7 5.31s-7.53-2.82-7.53-7.94zm10.7-2.4c0-2.14-1.3-3.77-3.31-3.77s-3.35 1.64-3.35 3.77z"/><path d="m711.59 322.05-.43 1.14c-1.44 3.82-3.44 5.15-7 5.15a11.65 11.65 0 0 1 -2.1-.17v-3a10.89 10.89 0 0 0 1.35.09c1.88 0 2.74-.61 3-2.14l.16-.6-5.76-16.64h4.56l3.53 12.88h.16l3.62-12.88h4.32c-1.12 3.79-5.38 16.12-5.41 16.17z"/><path d="m721.39 300c2.58 3.23 4.3 7.16 4.3 13.44s-1.89 11-4.16 13.94h-3.85a26.89 26.89 0 0 0 3.82-14c0-6.07-2-11.22-3.85-13.4z"/><path d="m750.82 322.52h-13.76v-21.37h13.76v3.46h-9.56v5.48h9v3.24h-9v5.73h9.56z"/><path d="m754.42 305.91h4v2.43h.17a5.1 5.1 0 0 1 4.82-2.7c3.39 0 5.75 2.12 5.75 6.19v10.69h-4.12v-9.8c0-2.55-1.47-3.57-3.24-3.57-2.13 0-3.29 1.53-3.29 3.63v9.74h-4.1z"/><path d="m772.4 313.44c0-4.6 2.75-7.83 7.39-7.83 4.19 0 6.74 2.66 6.84 5.86h-3.81a2.93 2.93 0 0 0 -2.82-2.57c-2.14 0-3.44 1.75-3.44 4.59v1.31c0 2.93 1.33 4.71 3.46 4.71a2.7 2.7 0 0 0 2.91-2.38h3.81c-.35 3.71-3 5.69-6.94 5.69-4.59 0-7.37-3.17-7.37-8z"/><path d="m789.88 305.91h4.12v2.28h.17a4 4 0 0 1 3.89-2.53 7.18 7.18 0 0 1 1.31.11v3.57a7 7 0 0 0 -1.63-.14c-2.71 0-3.64 1.62-3.64 3.85v9.47h-4.22z"/><path d="m811.68 322.05-.43 1.14c-1.44 3.82-3.44 5.15-7 5.15a11.65 11.65 0 0 1 -2.1-.17v-3a10.89 10.89 0 0 0 1.35.09c1.88 0 2.74-.61 3-2.14l.15-.6-5.76-16.64h4.56l3.55 12.91h.16l3.62-12.88h4.36c-1.14 3.76-5.43 16.09-5.46 16.14z"/><path d="m824 320.12h-.17v7.88h-4.13v-22.09h4.05v2.47h.17a5.2 5.2 0 0 1 4.81-2.69c3.7 0 6.26 2.77 6.26 7.8v1.42c0 5-2.55 7.83-6.32 7.83a5 5 0 0 1 -4.67-2.62zm6.78-5.4v-1.09c0-3-1.3-4.65-3.43-4.65s-3.55 1.75-3.55 4.63v1.11c0 2.95 1.41 4.73 3.6 4.73 1.95 0 3.33-1.63 3.33-4.73z"/><path d="m839.7 301.93h4v4h3.22v3.19h-3.22v8.19c0 1.66.7 2.16 2.41 2.16h.88v3.05a10.58 10.58 0 0 1 -1.88.14c-4.13 0-5.5-1.39-5.5-4.79v-8.77h-2.34v-3.19h2.42z"/><path d="m852.7 299.62a2.17 2.17 0 1 1 -2.34 2.17 2.21 2.21 0 0 1 2.34-2.17zm-2.05 6.29h4.11v16.61h-4.11z"/><path d="m873.55 313.55v1.22c0 4.84-2.69 8.05-7.59 8.05s-7.61-3.21-7.61-8v-1.23c0-4.58 2.71-7.95 7.61-7.95s7.59 3.36 7.59 7.91zm-11 0v1.28c0 2.62 1 4.78 3.45 4.78s3.43-2.15 3.43-4.78v-1.28c0-2.71-1-4.74-3.43-4.74s-3.49 2.05-3.49 4.74z"/><path d="m877 305.91h4v2.43h.17a5.1 5.1 0 0 1 4.82-2.7c3.38 0 5.75 2.12 5.75 6.19v10.69h-4.12v-9.8c0-2.55-1.47-3.57-3.24-3.57-2.13 0-3.29 1.53-3.29 3.63v9.74h-4.09z"/><path d="m89.12 532.65-1.31 7.49h-2.81l2-7.49zm5.31 0-1.31 7.49h-2.84l2-7.49z"/><path d="m111.54 554v-9.84h-10.75v9.84h-2.74v-21.35h2.74v9.1h10.75v-9.1h2.74v21.35z"/><path d="m118.57 546.59v-1.85c0-4.34 2.46-7.44 6.78-7.44s6.78 3.1 6.78 7.63v1.53h-10.86v.3c0 3.13 1.59 5.28 4.27 5.28a3.61 3.61 0 0 0 3.69-2.49h2.68c-.62 2.72-2.8 4.74-6.43 4.74-4.29 0-6.91-3.02-6.91-7.7zm10.87-2.3c0-2.62-1.61-4.68-4.07-4.68s-4.1 2.08-4.1 4.68z"/><path d="m136.31 531.53h2.69v22.47h-2.68z"/><path d="m144 531.53h2.68v22.47h-2.68z"/><path d="m165 545v1.47c0 4.46-2.43 7.78-7 7.78s-7.07-3.32-7.07-7.78v-1.47c0-4.4 2.47-7.74 7.07-7.74s7 3.38 7 7.74zm-11.43.09v1.29c0 3.35 1.55 5.54 4.38 5.54s4.36-2.18 4.36-5.54v-1.29c0-3.36-1.54-5.53-4.36-5.53s-4.34 2.21-4.34 5.57z"/><path d="m168.44 540.14 1.31-7.49h2.84l-2.05 7.49zm5.31 0 1.31-7.49h2.83l-2 7.49z"/><path d="m525.69 532.65-1.31 7.49h-2.84l2.05-7.49zm5.31 0-1.32 7.49h-2.83l2-7.49z"/><path d="m549.21 539a6 6 0 0 1 -4 6l4.35 9h-3.11l-4-8.5h-5.18v8.5h-2.73v-21.35h7.72c4.83 0 6.95 3.03 6.95 6.35zm-7.35 4.1c3 0 4.53-1.43 4.53-4 0-2.72-1.74-4.11-4.4-4.11h-4.65v8.06z"/><path d="m558.69 547.81-4.18 6.19h-3l5.65-8.23-5.51-8.22h3.23l4 6.25 4-6.25h3.12l-5.54 8.22 5.64 8.23h-3.21z"/><path d="m582.32 545v1.47c0 4.46-2.43 7.78-7.05 7.78s-7.07-3.32-7.07-7.78v-1.47c0-4.4 2.47-7.74 7.07-7.74s7.05 3.38 7.05 7.74zm-11.43.09v1.29c0 3.35 1.55 5.54 4.38 5.54s4.36-2.18 4.36-5.54v-1.29c0-3.36-1.54-5.52-4.36-5.52s-4.38 2.2-4.38 5.56z"/><path d="m591.88 537.3c3.87 0 5.86 2.21 5.86 4.94h-2.5c-.1-1.26-.88-2.73-3.45-2.73-2 0-3.37.86-3.37 2.49 0 1.85 2.18 2.24 4.06 2.58 3.08.55 5.68 1.38 5.68 4.59s-2.64 5.12-6.51 5.12c-3.62 0-6.14-1.74-6.14-4.7h2.63c.24 1.51 1.52 2.49 3.71 2.49 2.52 0 3.67-1.19 3.67-2.58 0-1.86-1.83-2.22-4.14-2.68-3.06-.62-5.59-1.56-5.59-4.54 0-3.47 2.93-4.98 6.09-4.98z"/><path d="m602.25 554v-21.35h2.66l7.09 16.52h.06l7.06-16.52h2.66v21.35h-2.48v-15.51h-.1l-6 13.75h-2.32l-6-13.75h-.08v15.51z"/><path d="m639.56 554h-12.56v-21.35h2.74v18.92h9.83z"/><path d="m646.27 554-7.68-21.37h3.11l6 17.85h.09l5.94-17.85h3.09l-7.73 21.37z"/><path d="m674.27 554h-2.79l-3.76-12.68h-.06l-3.74 12.68h-2.8l-4.29-16.45h2.72l3 13h.13l3.71-13h2.61l3.72 13h.13l3-13h2.72z"/><path d="m680.94 544.91c0-4.43 2.53-7.61 6.82-7.61 3.81 0 6.12 2.52 6.27 5h-2.65a3.57 3.57 0 0 0 -3.45-2.66c-2.72 0-4.3 2-4.3 5.34v1.54c0 3.22 1.69 5.35 4.32 5.35 2 0 3.26-1.1 3.55-2.41h2.65c-.55 2.82-2.61 4.79-6.39 4.79-4.37 0-6.82-3.37-6.82-7.75z"/><path d="m697.91 537.57h2.68v2.18h.07a5.38 5.38 0 0 1 4.81-2.45c3.38 0 5.9 2.16 5.9 6.17v10.53h-2.69v-10.07c0-2.77-1.63-4.18-4-4.18-2.84 0-4.06 2-4.06 4.25v10h-2.69z"/><path d="m729.38 545v1.47c0 4.46-2.43 7.78-7 7.78s-7.07-3.32-7.07-7.78v-1.47c0-4.4 2.47-7.74 7.07-7.74s7 3.38 7 7.74zm-11.43.09v1.29c0 3.35 1.55 5.54 4.38 5.54s4.35-2.18 4.35-5.54v-1.29c0-3.36-1.53-5.52-4.35-5.52s-4.33 2.2-4.33 5.56z"/><path d="m732.77 540.14 1.32-7.49h2.83l-2 7.49zm5.31 0 1.32-7.49h2.83l-2.05 7.49z"/></g><path d="m966.91 539.12h-50.84a.78.78 0 1 1 0-1.56h49.14l-4.88-4.51h-48.2a21.4 21.4 0 1 0 -.21 21h10.64l1.73 1.55h2.24l4.31-4.83h4.49l2.58 2.25h1.73l2.41-2.42h3.11l2.41 2.07h2.43l2.07-3.1h3.8l3.1 2.76h2.76l7.59-7.59v-3.45zm-83.49 9.72a5.44 5.44 0 1 1 5.44-5.44 5.43 5.43 0 0 1 -5.44 5.44z" fill="#378557"/><path d="m1113.07 531.77-1.31 7.49h-2.84l2.06-7.49zm5.31 0-1.31 7.49h-2.84l2-7.49z" fill="#404343"/><path d="m1135.49 553.14v-9.84h-10.75v9.84h-2.74v-21.37h2.74v9.1h10.75v-9.1h2.74v21.37z" fill="#404343"/><path d="m1142.52 545.71v-1.85c0-4.34 2.46-7.44 6.78-7.44s6.78 3.1 6.78 7.63v1.53h-10.86v.3c0 3.13 1.59 5.28 4.27 5.28a3.61 3.61 0 0 0 3.69-2.49h2.68c-.62 2.72-2.8 4.74-6.43 4.74-4.29 0-6.91-3.02-6.91-7.7zm10.87-2.3c0-2.62-1.61-4.68-4.07-4.68s-4.1 2.08-4.1 4.68z" fill="#404343"/><path d="m1160.26 530.65h2.68v22.49h-2.68z" fill="#404343"/><path d="m1168 530.65h2.68v22.49h-2.68z" fill="#404343"/><path d="m1189 544.16v1.47c0 4.46-2.43 7.78-7 7.78s-7.08-3.32-7.08-7.78v-1.47c0-4.4 2.47-7.74 7.08-7.74s7 3.34 7 7.74zm-11.43.09v1.29c0 3.34 1.55 5.54 4.39 5.54s4.35-2.18 4.35-5.54v-1.29c0-3.37-1.54-5.53-4.35-5.53s-4.4 2.16-4.4 5.53z" fill="#404343"/><path d="m1192.39 539.26 1.31-7.49h2.84l-2 7.49zm5.31 0 1.31-7.49h2.83l-2 7.49z" fill="#404343"/><path d="m290.51 422.31a4.64 4.64 0 0 1 5 4.87c0 2.95-2 4.85-5 4.85h-3.94v6.26h-1.64v-16zm-3.94 8.23h2.84c2.81 0 4.44-.7 4.44-3.36a3.09 3.09 0 0 0 -3.4-3.37h-3.88z" fill="#404343"/><path d="m307.82 438.29h-1.62v-1.75h-.07a3.69 3.69 0 0 1 -3.64 1.95c-2.5 0-4.33-1.43-4.33-4.22v-8.27h1.62v7.77a2.84 2.84 0 0 0 3.12 3.23 3.15 3.15 0 0 0 3.29-3.4v-7.6h1.63z" fill="#404343"/><path d="m313.19 436.32h-.05v2h-1.54v-16.87h1.62v6.42a4.32 4.32 0 0 1 3.7-2c2.84 0 4.84 2 4.84 5.6v1.45c0 3.51-2 5.61-4.86 5.61a4 4 0 0 1 -3.71-2.21zm7-3.56v-1.2c0-2.76-1.4-4.27-3.35-4.27-2.3 0-3.65 1.61-3.65 4.26v1.19c0 2.71 1.38 4.31 3.65 4.31 1.92 0 3.35-1.5 3.35-4.29z" fill="#404343"/><path d="m325.15 421.45h1.62v16.84h-1.62z" fill="#404343"/><path d="m331.52 421.9a1.13 1.13 0 1 1 -1.12 1.1 1.13 1.13 0 0 1 1.12-1.1zm-.8 4.14h1.61v12.25h-1.61z" fill="#404343"/><path d="m335.7 431.42c0-3.33 1.88-5.59 5-5.59 2.82 0 4.47 1.9 4.59 3.69h-1.62a2.9 2.9 0 0 0 -2.87-2.21c-2.16 0-3.46 1.56-3.46 4.22v1.26c0 2.59 1.36 4.22 3.5 4.22a2.71 2.71 0 0 0 2.91-2h1.61c-.38 1.92-1.81 3.48-4.65 3.48-3.17 0-5-2.4-5-5.68z" fill="#404343"/><path d="m358.22 429.17 6.47 9.12h-2.11l-5.58-8-2 2.17v5.81h-1.64v-16h1.64v8l7.33-8h2z" fill="#404343"/><path d="m365.9 432.79v-1.39c0-3.31 1.79-5.57 4.93-5.57s4.93 2.25 4.93 5.7v1h-8.24v.29c0 2.57 1.28 4.25 3.45 4.25a2.88 2.88 0 0 0 3-2h1.64a4.41 4.41 0 0 1 -4.67 3.42c-3.16 0-5.04-2.23-5.04-5.7zm8.23-1.65c0-2.23-1.31-3.87-3.3-3.87s-3.31 1.64-3.31 3.87z" fill="#404343"/><path d="m383.52 438.4-.37 1c-.89 2.37-2 3.13-3.88 3.13a5.19 5.19 0 0 1 -1-.09v-1.36c.22 0 .59.05.89.05a2.22 2.22 0 0 0 2.44-1.83l.26-.82-4.62-12.48h1.76l3.58 10.39h.06l3.58-10.39h1.72z" fill="#404343"/><path d="m885.58 580.6a4.65 4.65 0 0 1 5 4.88c0 2.95-2 4.85-5 4.85h-3.94v6.26h-1.64v-16zm-3.94 8.24h2.84c2.81 0 4.44-.7 4.44-3.36a3.09 3.09 0 0 0 -3.4-3.38h-3.88z" fill="#404343"/><path d="m902.89 596.59h-1.62v-1.75h-.07a3.69 3.69 0 0 1 -3.64 1.95c-2.5 0-4.33-1.43-4.33-4.22v-8.23h1.62v7.77a2.84 2.84 0 0 0 3.15 3.19 3.15 3.15 0 0 0 3.29-3.4v-7.56h1.63z" fill="#404343"/><path d="m908.26 594.62v2h-1.54v-16.87h1.62v6.42h.05a4.29 4.29 0 0 1 3.7-2c2.84 0 4.84 2 4.84 5.6v1.44c0 3.52-2 5.62-4.86 5.62a4.05 4.05 0 0 1 -3.81-2.21zm7-3.57v-1.19c0-2.77-1.4-4.28-3.35-4.28-2.29 0-3.65 1.62-3.65 4.27v1.15c0 2.72 1.38 4.31 3.65 4.31 1.92.03 3.35-1.47 3.35-4.26z" fill="#404343"/><path d="m920.22 579.75h1.62v16.84h-1.62z" fill="#404343"/><path d="m926.6 580.19a1.13 1.13 0 1 1 -1.13 1.13 1.14 1.14 0 0 1 1.13-1.13zm-.81 4.15h1.62v12.25h-1.62z" fill="#404343"/><path d="m930.77 589.72c0-3.33 1.89-5.59 5-5.59 2.82 0 4.47 1.9 4.59 3.69h-1.62a2.89 2.89 0 0 0 -2.87-2.21c-2.15 0-3.45 1.55-3.45 4.21v1.27c0 2.59 1.36 4.22 3.49 4.22a2.73 2.73 0 0 0 2.92-2h1.6c-.37 1.93-1.8 3.49-4.65 3.49-3.17 0-5-2.41-5-5.69z" fill="#404343"/><path d="m953.29 587.47 6.47 9.12h-2.11l-5.58-8-2 2.16v5.82h-1.64v-16h1.64v8h.06l7.32-8h2z" fill="#404343"/><path d="m961 591.09v-1.39c0-3.31 1.79-5.57 4.93-5.57s4.93 2.25 4.93 5.69v1h-8.26v.3c0 2.56 1.27 4.25 3.44 4.25a2.88 2.88 0 0 0 3-2h1.64a4.41 4.41 0 0 1 -4.66 3.43c-3.17-.01-5.02-2.24-5.02-5.71zm8.24-1.65c0-2.22-1.32-3.86-3.31-3.86s-3.3 1.64-3.3 3.86z" fill="#404343"/><path d="m978.59 596.69-.37 1c-.89 2.37-2 3.13-3.88 3.13a5 5 0 0 1 -1-.1v-1.35h.89a2.22 2.22 0 0 0 2.43-1.83l.26-.82-4.57-12.43h1.79l3.58 10.38h.06l3.55-10.38h1.67z" fill="#404343"/><path d="m879.64 422.31a4.64 4.64 0 0 1 5 4.87c0 2.95-2 4.85-5 4.85h-3.93v6.26h-1.64v-16zm-3.93 8.23h2.83c2.82 0 4.44-.7 4.44-3.36a3.08 3.08 0 0 0 -3.39-3.37h-3.88z" fill="#404343"/><path d="m887.47 426h1.62v1.67a3.19 3.19 0 0 1 3.14-1.85h.76v1.52a5.7 5.7 0 0 0 -.95-.06c-2.2 0-3 1.47-3 3.37v7.56h-1.62z" fill="#404343"/><path d="m896.7 421.9a1.13 1.13 0 1 1 -1.13 1.12 1.13 1.13 0 0 1 1.13-1.12zm-.81 4.14h1.61v12.25h-1.61z" fill="#404343"/><path d="m899.84 426h1.7l3.46 10.25h.05l3.68-10.25h1.63l-4.44 12.25h-1.72z" fill="#404343"/><path d="m915.64 438.49c-2.36 0-4-1.45-4-3.69s1.46-3.47 4.25-3.48h3.39v-1.39a2.49 2.49 0 0 0 -2.81-2.69c-1.73 0-2.65.85-2.82 2.17h-1.53c.15-2.1 1.59-3.58 4.41-3.58 2.55 0 4.37 1.41 4.37 3.91v8.55h-1.57v-1.64h-.05a4 4 0 0 1 -3.64 1.84zm3.65-4.29v-1.56h-3.29c-1.85 0-2.64.88-2.64 2.11 0 1.56 1.26 2.34 2.7 2.34a3 3 0 0 0 3.23-2.89z" fill="#404343"/><path d="m925.25 423h1.61v3h2.59v1.39h-2.59v7.71c0 1.5.52 1.88 2.07 1.88a5.59 5.59 0 0 0 .62 0v1.32a4.55 4.55 0 0 1 -1 .1c-2.74 0-3.29-1.06-3.29-3.39v-7.59h-1.72v-1.42h1.72z" fill="#404343"/><path d="m931.85 432.79v-1.39c0-3.31 1.79-5.57 4.94-5.57s4.93 2.25 4.93 5.7v1h-8.24v.29c0 2.57 1.28 4.25 3.45 4.25a2.86 2.86 0 0 0 3-2h1.64a4.4 4.4 0 0 1 -4.66 3.42c-3.17 0-5.06-2.23-5.06-5.7zm8.24-1.65c0-2.23-1.31-3.87-3.3-3.87s-3.31 1.64-3.31 3.87z" fill="#404343"/><path d="m954.8 429.17 6.47 9.12h-2.11l-5.58-8-2 2.17v5.81h-1.64v-16h1.64v8h.06l7.33-8h2z" fill="#404343"/><path d="m962.47 432.79v-1.39c0-3.31 1.8-5.57 4.94-5.57s4.93 2.25 4.93 5.7v1h-8.24v.29c0 2.57 1.28 4.25 3.45 4.25a2.86 2.86 0 0 0 3-2h1.64a4.4 4.4 0 0 1 -4.66 3.42c-3.17 0-5.06-2.23-5.06-5.7zm8.24-1.65c0-2.23-1.31-3.87-3.3-3.87s-3.31 1.64-3.31 3.87z" fill="#404343"/><path d="m980.1 438.4-.38 1c-.89 2.37-2 3.13-3.88 3.13a5.1 5.1 0 0 1 -1-.09v-1.36c.21 0 .59.05.89.05a2.23 2.23 0 0 0 2.44-1.83l.26-.82-4.61-12.48h1.79l3.57 10.39h.06l3.55-10.39h1.73z" fill="#404343"/><path d="m290.51 580.6a4.64 4.64 0 0 1 5 4.88c0 2.95-2 4.85-5 4.85h-3.94v6.26h-1.64v-16zm-3.94 8.24h2.84c2.81 0 4.44-.7 4.44-3.36a3.09 3.09 0 0 0 -3.4-3.38h-3.88z" fill="#404343"/><path d="m298.34 584.34h1.66v1.66a3.21 3.21 0 0 1 3.14-1.85c.28 0 .54 0 .76.05v1.51a6.82 6.82 0 0 0 -.95-.06c-2.2 0-3 1.48-3 3.38v7.56h-1.61z" fill="#404343"/><path d="m307.56 580.19a1.13 1.13 0 1 1 0 2.26 1.13 1.13 0 1 1 0-2.26zm-.81 4.15h1.62v12.25h-1.62z" fill="#404343"/><path d="m310.7 584.34h1.7l3.48 10.21h.06l3.65-10.21h1.63l-4.44 12.25h-1.72z" fill="#404343"/><path d="m326.51 596.79c-2.37 0-4-1.46-4-3.7s1.47-3.47 4.26-3.48h3.38v-1.38a2.48 2.48 0 0 0 -2.81-2.69c-1.72 0-2.65.85-2.81 2.16h-1.53c.16-2.09 1.6-3.57 4.41-3.57 2.55 0 4.37 1.41 4.37 3.9v8.56h-1.58v-1.59h-.05a4 4 0 0 1 -3.64 1.79zm3.64-4.29v-1.56h-3.32c-1.86 0-2.64.88-2.64 2.11a2.39 2.39 0 0 0 2.69 2.34 3 3 0 0 0 3.27-2.89z" fill="#404343"/><path d="m336.12 581.28h1.6v3.06h2.59v1.38h-2.59v7.71c0 1.5.52 1.89 2.08 1.89a5.85 5.85 0 0 0 .62 0v1.32a4.87 4.87 0 0 1 -1 .09c-2.73 0-3.28-1.05-3.28-3.38v-7.6h-1.74v-1.38h1.72z" fill="#404343"/><path d="m342.72 591.09v-1.39c0-3.31 1.79-5.57 4.93-5.57s4.93 2.25 4.93 5.69v1h-8.24v.3c0 2.56 1.28 4.25 3.45 4.25a2.89 2.89 0 0 0 3-2h1.64a4.41 4.41 0 0 1 -4.67 3.43c-3.16-.01-5.04-2.24-5.04-5.71zm8.23-1.65c0-2.22-1.31-3.86-3.3-3.86s-3.31 1.64-3.31 3.86z" fill="#404343"/><path d="m365.66 587.47 6.47 9.12h-2.13l-5.58-8-2 2.16v5.82h-1.64v-16h1.64v8h.06l7.32-8h2z" fill="#404343"/><path d="m373.34 591.09v-1.39c0-3.31 1.79-5.57 4.93-5.57s4.93 2.25 4.93 5.69v1h-8.2v.3c0 2.56 1.27 4.25 3.44 4.25a2.89 2.89 0 0 0 3-2h1.56a4.41 4.41 0 0 1 -4.67 3.43c-3.11-.01-4.99-2.24-4.99-5.71zm8.24-1.65c0-2.22-1.32-3.86-3.31-3.86s-3.3 1.64-3.3 3.86z" fill="#404343"/><path d="m391 596.69-.37 1c-.89 2.37-2 3.13-3.88 3.13a5 5 0 0 1 -1-.1v-1.35h.89a2.22 2.22 0 0 0 2.43-1.83l.26-.82-4.57-12.43h1.79l3.58 10.38h.06l3.55-10.38h1.72z" fill="#404343"/><path d="m965.91 381.93h-50.84a.78.78 0 0 1 0-1.56h49.14l-4.88-4.51h-48.2a21.4 21.4 0 1 0 -.21 21h10.64l1.73 1.55h2.24l4.31-4.82h4.49l2.58 2.24h1.73l2.41-2.42h3.11l2.41 2.07h2.43l2.07-3.1h3.8l3.1 2.76h2.76l7.59-7.59v-3.45zm-83.49 9.72a5.44 5.44 0 1 1 5.44-5.44 5.43 5.43 0 0 1 -5.44 5.44z" fill="#2e7cb0"/></g><g fill="none" stroke="#404343"><path d="m147.81 62.77v49.5" stroke-linecap="round" stroke-linejoin="round" stroke-width="10"/><path d="m172.56 87.52h-49.5" stroke-linecap="round" stroke-linejoin="round" stroke-width="10"/><path d="m147.81 219.03v49.5" stroke-linecap="round" stroke-linejoin="round" stroke-width="10"/><path d="m172.56 243.78h-49.5" stroke-linecap="round" stroke-linejoin="round" stroke-width="10"/><path d="m719.8 63.04v49.5" stroke-linecap="round" stroke-linejoin="round" stroke-width="10"/><path d="m744.55 87.79h-49.5" stroke-linecap="round" stroke-linejoin="round" stroke-width="10"/><path d="m719.8 219.3v49.5" stroke-linecap="round" stroke-linejoin="round" stroke-width="10"/><path d="m744.55 244.05h-49.5" stroke-linecap="round" stroke-linejoin="round" stroke-width="10"/><path d="m394.31 75.44h-49.5" stroke-linecap="round" stroke-linejoin="round" stroke-width="10"/><path d="m394.33 98.26h-49.5" stroke-linecap="round" stroke-linejoin="round" stroke-width="10"/><path d="m394.32 237.81h-49.5" stroke-linecap="round" stroke-linejoin="round" stroke-width="10"/><path d="m394.33 260.64h-49.49" stroke-linecap="round" stroke-linejoin="round" stroke-width="10"/><path d="m985.69 74.56h-49.49" stroke-linecap="round" stroke-linejoin="round" stroke-width="10"/><path d="m985.71 97.38h-49.5" stroke-linecap="round" stroke-linejoin="round" stroke-width="10"/><path d="m985.7 236.94h-49.5" stroke-linecap="round" stroke-linejoin="round" stroke-width="10"/><path d="m985.71 259.76h-49.49" stroke-linecap="round" stroke-linejoin="round" stroke-width="10"/><path d="m0 171.42 1123.73-2.95" stroke-miterlimit="10"/></g></svg>