<svg id="Layer_1" data-name="Layer 1" xmlns="http://www.w3.org/2000/svg" viewBox="0 0 1155.87 137.35"><defs><style>.cls-1{fill:#404343;}.cls-2{fill:none;stroke:#404343;stroke-linecap:round;stroke-linejoin:round;stroke-width:10px;}</style></defs><title>Symmetric Encryption</title><path class="cls-1" d="M385,383.93H334.11a.79.79,0,0,1,0-1.57h49.14l-4.88-4.5h-48.2a21.4,21.4,0,1,0-.21,21H340.6l1.73,1.55h2.24l4.31-4.83h4.49l2.58,2.24h1.73l2.41-2.41h3.11l2.41,2.07H368l2.07-3.11h3.8l3.1,2.76h2.76l7.59-7.58v-3.45Zm-83.49,9.72a5.45,5.45,0,1,1,5.44-5.44A5.44,5.44,0,0,1,301.46,393.65Z" transform="translate(-53.97 -299.62)"/><line class="cls-2" x1="122.19" y1="88.59" x2="203.64" y2="88.59"/><polygon class="cls-1" points="183.73 105.54 200.69 88.59 183.73 71.64 198.12 71.64 215.07 88.59 198.12 105.54 183.73 105.54"/><path class="cls-1" d="M58.12,376.39l-1.31,7.49H54L56,376.39Zm5.31,0-1.31,7.49H59.28l2-7.49Z" transform="translate(-53.97 -299.62)"/><path class="cls-1" d="M80.54,397.76v-9.85H69.79v9.85H67.05V376.39h2.74v9.1H80.54v-9.1h2.74v21.37Z" transform="translate(-53.97 -299.62)"/><path class="cls-1" d="M87.57,390.33v-1.85c0-4.34,2.46-7.44,6.78-7.44s6.78,3.1,6.78,7.63v1.53H90.27v.3c0,3.13,1.59,5.27,4.27,5.27a3.6,3.6,0,0,0,3.69-2.49h2.68c-.62,2.73-2.8,4.75-6.43,4.75C90.19,398,87.57,395,87.57,390.33ZM98.44,388v0c0-2.62-1.61-4.68-4.07-4.68s-4.1,2.08-4.1,4.68v0Z" transform="translate(-53.97 -299.62)"/><path class="cls-1" d="M105.31,375.26H108v22.5h-2.68Z" transform="translate(-53.97 -299.62)"/><path class="cls-1" d="M113,375.26h2.68v22.5H113Z" transform="translate(-53.97 -299.62)"/><path class="cls-1" d="M134,388.78v1.47c0,4.46-2.43,7.78-7,7.78s-7.07-3.32-7.07-7.78v-1.47c0-4.4,2.47-7.74,7.07-7.74S134,384.38,134,388.78Zm-11.43.09v1.28c0,3.35,1.55,5.55,4.38,5.55s4.36-2.18,4.36-5.55v-1.28c0-3.37-1.54-5.53-4.36-5.53S122.61,385.5,122.61,388.87Z" transform="translate(-53.97 -299.62)"/><path class="cls-1" d="M137.44,383.88l1.31-7.49h2.84l-2.05,7.49Zm5.31,0,1.31-7.49h2.83l-2,7.49Z" transform="translate(-53.97 -299.62)"/><line class="cls-2" x1="358.48" y1="87.52" x2="439.94" y2="87.52"/><polygon class="cls-1" points="420.02 104.47 436.99 87.52 420.02 70.57 434.42 70.57 451.37 87.52 434.42 104.47 420.02 104.47"/><path class="cls-1" d="M531.69,376.39l-1.31,7.49h-2.84l2.05-7.49Zm5.31,0-1.32,7.49h-2.83l2-7.49Z" transform="translate(-53.97 -299.62)"/><path class="cls-1" d="M544.14,398c-3.18,0-5.37-2-5.37-5,0-2.88,2-4.69,5.77-4.71h4.34v-1.67c0-2.16-1.25-3.35-3.47-3.35s-3.32,1.08-3.48,2.72h-2.54c.18-2.88,2.13-5,6.11-5,3.51,0,6.06,1.91,6.06,5.37v11.35H549v-2.05h-.08A5.23,5.23,0,0,1,544.14,398Zm4.74-5.73v-1.91h-4.13c-2.26,0-3.23,1.06-3.23,2.55,0,1.94,1.62,2.85,3.34,2.85C547.16,395.79,548.88,394.35,548.88,392.3Z" transform="translate(-53.97 -299.62)"/><path class="cls-1" d="M556.38,376.39h8c3.63,0,5.93,2,5.93,5.26a4.62,4.62,0,0,1-3.41,4.73v.11a5,5,0,0,1,4.63,5.29c0,3.73-2.86,6-7.47,6h-7.7Zm2.72,9.21h3.28c3.58,0,5.19-1.1,5.19-3.48,0-2.11-1.33-3.33-3.61-3.33H559.1Zm0,9.77h3.72c4.22,0,5.93-1.05,5.93-3.57S567.1,388,564.26,388H559.1Z" transform="translate(-53.97 -299.62)"/><path class="cls-1" d="M572.18,402.6l7.7-27.33h2.49l-7.7,27.33Z" transform="translate(-53.97 -299.62)"/><path class="cls-1" d="M585.09,397.76V376.39h2.63l10.87,16.69h.06V376.39h2.62v21.37h-2.63l-10.87-16.7h-.06v16.7Z" transform="translate(-53.97 -299.62)"/><path class="cls-1" d="M619.22,397.76H606.4V376.39h12.82v2.44H609.13v6.83h9.53V388h-9.53v7.28h10.09Z" transform="translate(-53.97 -299.62)"/><path class="cls-1" d="M624.08,392.86c.08,1.66,1.19,2.87,3.32,2.87,2.38,0,3.5-1.43,3.5-4.32v-15h2.74v15c0,4.38-2.25,6.81-6.24,6.81-3.62,0-6-2.23-6-5.36Z" transform="translate(-53.97 -299.62)"/><path class="cls-1" d="M650.57,376.39v14.53h2.78v2.41h-2.78v4.43H648v-4.43H637.57V391c2.68-4.83,5.86-9.86,9-14.59ZM648,390.92V378.77h0c-2.59,3.77-5.34,8.17-7.6,12.12v0Z" transform="translate(-53.97 -299.62)"/><path class="cls-1" d="M662.54,381.06a5.52,5.52,0,0,1,5,2.57h.08v-2.32h2.58v21.92h-2.69v-7.82h-.08A5.34,5.34,0,0,1,662.5,398c-3.88,0-6.41-3-6.41-7.92v-1.3C656.09,384.11,658.63,381.06,662.54,381.06ZM658.8,389V390c0,3.46,1.58,5.68,4.31,5.68s4.44-2.25,4.44-5.68V389c0-3.34-1.67-5.54-4.47-5.54S658.8,385.44,658.8,389Z" transform="translate(-53.97 -299.62)"/><path class="cls-1" d="M674.38,390.33v-1.85c0-4.34,2.46-7.44,6.78-7.44s6.78,3.1,6.78,7.63v1.53H677.07v.3c0,3.13,1.6,5.27,4.28,5.27a3.6,3.6,0,0,0,3.69-2.49h2.68c-.63,2.73-2.8,4.75-6.43,4.75C677,398,674.38,395,674.38,390.33ZM685.25,388v0c0-2.62-1.62-4.68-4.07-4.68s-4.11,2.08-4.11,4.68v0Z" transform="translate(-53.97 -299.62)"/><path class="cls-1" d="M696,385.55h2c2.42,0,4.11-1.53,4.1-3.71s-1.55-3.55-4-3.55a3.66,3.66,0,0,0-3.93,3.44h-2.62c.07-2.8,2.23-5.79,6.55-5.79,4,0,6.64,2.38,6.73,5.45A5.13,5.13,0,0,1,701,386.6v0a5.2,5.2,0,0,1,4.66,5.18c.08,3.66-3.16,6.4-7.61,6.4s-6.85-2.72-7-6h2.57c.28,2,1.64,3.63,4.51,3.63,3.05,0,4.77-1.71,4.74-4.06s-1.78-3.88-4.76-3.88H696Z" transform="translate(-53.97 -299.62)"/><path class="cls-1" d="M721.71,376.39v14.53h2.79v2.41h-2.79v4.43h-2.62v-4.43H708.71V391c2.68-4.83,5.86-9.86,9-14.59Zm-2.62,14.53V378.77h0c-2.59,3.77-5.34,8.17-7.6,12.12v0Z" transform="translate(-53.97 -299.62)"/><path class="cls-1" d="M726.27,383.88l1.31-7.49h2.84l-2.06,7.49Zm5.3,0,1.32-7.49h2.83l-2.05,7.49Z" transform="translate(-53.97 -299.62)"/><path class="cls-1" d="M971.91,382.86H921.07a.78.78,0,0,1,0-1.56h49.14l-4.88-4.51h-48.2a21.4,21.4,0,1,0-.21,21h10.65l1.72,1.55h2.24l4.31-4.83h4.49l2.58,2.24h1.73l2.41-2.41h3.11l2.41,2.07H955l2.07-3.11h3.8l3.1,2.76h2.76l7.59-7.58v-3.45Zm-83.49,9.72a5.45,5.45,0,1,1,5.44-5.44A5.44,5.44,0,0,1,888.42,392.58Z" transform="translate(-53.97 -299.62)"/><line class="cls-2" x1="709.15" y1="87.52" x2="790.6" y2="87.52"/><polygon class="cls-1" points="770.69 104.47 787.65 87.52 770.69 70.57 785.08 70.57 802.03 87.52 785.08 104.47 770.69 104.47"/><line class="cls-2" x1="946.58" y1="88.59" x2="1028.03" y2="88.59"/><polygon class="cls-1" points="1008.12 105.54 1025.08 88.59 1008.12 71.64 1022.51 71.64 1039.46 88.59 1022.51 105.54 1008.12 105.54"/><path class="cls-1" d="M1121.07,375.51l-1.31,7.49h-2.84l2.06-7.49Zm5.31,0-1.31,7.49h-2.84l2-7.49Z" transform="translate(-53.97 -299.62)"/><path class="cls-1" d="M1143.49,396.88V387h-10.75v9.85H1130V375.51h2.74v9.1h10.75v-9.1h2.74v21.37Z" transform="translate(-53.97 -299.62)"/><path class="cls-1" d="M1150.52,389.44V387.6c0-4.34,2.46-7.44,6.78-7.44s6.78,3.1,6.78,7.63v1.53h-10.86v.3c0,3.13,1.59,5.27,4.27,5.27a3.62,3.62,0,0,0,3.7-2.49h2.67c-.62,2.73-2.8,4.75-6.43,4.75C1153.14,397.15,1150.52,394.13,1150.52,389.44Zm10.87-2.3v0c0-2.62-1.61-4.68-4.07-4.68s-4.1,2.08-4.1,4.68v0Z" transform="translate(-53.97 -299.62)"/><path class="cls-1" d="M1168.26,374.38h2.68v22.5h-2.68Z" transform="translate(-53.97 -299.62)"/><path class="cls-1" d="M1176,374.38h2.68v22.5H1176Z" transform="translate(-53.97 -299.62)"/><path class="cls-1" d="M1197,387.9v1.47c0,4.46-2.42,7.78-7,7.78s-7.08-3.32-7.08-7.78V387.9c0-4.4,2.47-7.74,7.08-7.74S1197,383.5,1197,387.9Zm-11.43.09v1.28c0,3.35,1.55,5.54,4.39,5.54s4.35-2.17,4.35-5.54V388c0-3.37-1.54-5.53-4.35-5.53S1185.56,384.62,1185.56,388Z" transform="translate(-53.97 -299.62)"/><path class="cls-1" d="M1200.39,383l1.32-7.49h2.83l-2,7.49Zm5.31,0,1.31-7.49h2.84l-2.06,7.49Z" transform="translate(-53.97 -299.62)"/><path class="cls-1" d="M471.87,316.45c.14,1.65,1.63,3.13,4.43,3.13,2.6,0,4-1.19,4-3,0-1.51-1.08-2.27-3.29-2.77l-3.3-.77c-2.93-.66-5.42-2.32-5.42-5.9,0-4.17,3.57-6.47,8-6.47,4.59,0,7.87,2.51,7.94,6.34h-4c-.14-1.59-1.41-3-4-3-2.27,0-3.72,1.08-3.72,2.82,0,1.28,1,2.16,2.92,2.58l3.32.77c3.17.69,5.75,2.21,5.75,6,0,4.19-3.32,6.7-8.47,6.7-6.2,0-8.22-3.51-8.28-6.48Z" transform="translate(-53.97 -299.62)"/><path class="cls-1" d="M496.58,322.05l-.42,1.14c-1.44,3.82-3.45,5.15-7.05,5.15a11.73,11.73,0,0,1-2.1-.17v-3a10.89,10.89,0,0,0,1.35.09c1.88,0,2.74-.61,3-2.14l.15-.6-5.76-16.64h4.56l3.54,12.88H494l3.62-12.88H502C500.87,309.67,496.61,322,496.58,322.05Z" transform="translate(-53.97 -299.62)"/><path class="cls-1" d="M504.53,305.91h4v2.38h.22a4.43,4.43,0,0,1,4.35-2.65c2.55,0,4.09,1.15,4.65,2.85h.17c.55-1.41,2.27-2.85,5.06-2.85,3.43,0,5.42,2.21,5.42,5.53v11.35h-4.12V312.31c0-2.11-1.14-3.22-2.9-3.22s-2.94,1.25-2.94,3.38v10h-4v-10c0-2.4-1.23-3.38-2.91-3.38s-2.93,1.05-2.93,3.35v10.08h-4.1Z" transform="translate(-53.97 -299.62)"/><path class="cls-1" d="M532.42,305.91h4v2.38h.22a4.46,4.46,0,0,1,4.36-2.65c2.55,0,4.08,1.15,4.65,2.85h.17c.55-1.41,2.27-2.85,5-2.85,3.43,0,5.42,2.21,5.42,5.53v11.35h-4.12V312.31c0-2.11-1.14-3.22-2.89-3.22s-2.95,1.25-2.95,3.38v10h-4v-10c0-2.4-1.24-3.38-2.91-3.38s-2.93,1.05-2.93,3.35v10.08h-4.1Z" transform="translate(-53.97 -299.62)"/><path class="cls-1" d="M559.63,314.88v-1.52c0-4.87,3-7.75,7.36-7.75s7.32,3.09,7.32,7.86v1.63H563.67v.45c0,2.52,1.42,4.12,3.52,4.12a3,3,0,0,0,3.14-2.16h3.83c-.4,2.66-2.56,5.31-7,5.31S559.63,320,559.63,314.88Zm10.69-2.4v0c0-2.14-1.3-3.77-3.3-3.77s-3.35,1.64-3.35,3.77v0Z" transform="translate(-53.97 -299.62)"/><path class="cls-1" d="M579,301.93h4v4h3.23v3.19H583v8.19c0,1.66.71,2.16,2.41,2.16.35,0,.69,0,.88,0v3.05a10.49,10.49,0,0,1-1.88.14c-4.13,0-5.49-1.39-5.49-4.79V309.1h-2.35v-3.19H579Z" transform="translate(-53.97 -299.62)"/><path class="cls-1" d="M589.78,305.91h4.12v2.28h.17a4,4,0,0,1,3.88-2.53,7.22,7.22,0,0,1,1.32.11v3.57a7,7,0,0,0-1.63-.14c-2.71,0-3.65,1.62-3.65,3.85v9.47h-4.21Z" transform="translate(-53.97 -299.62)"/><path class="cls-1" d="M604.39,299.62a2.17,2.17,0,1,1-2.33,2.17A2.21,2.21,0,0,1,604.39,299.62Zm-2,6.29h4.11v16.61h-4.11Z" transform="translate(-53.97 -299.62)"/><path class="cls-1" d="M610,313.44c0-4.6,2.75-7.83,7.39-7.83,4.19,0,6.75,2.66,6.84,5.86h-3.8a2.94,2.94,0,0,0-2.85-2.57c-2.15,0-3.45,1.75-3.45,4.59v1.31c0,2.93,1.33,4.71,3.46,4.71a2.69,2.69,0,0,0,2.91-2.38h3.81c-.35,3.71-3,5.69-6.94,5.69-4.58,0-7.37-3.17-7.37-8Z" transform="translate(-53.97 -299.62)"/><path class="cls-1" d="M647.82,322.52H634.06V301.15h13.76v3.46h-9.57v5.48h9v3.24h-9v5.73h9.57Z" transform="translate(-53.97 -299.62)"/><path class="cls-1" d="M651.42,305.91h4v2.43h.17a5.1,5.1,0,0,1,4.82-2.7c3.38,0,5.75,2.12,5.75,6.19v10.69h-4.12v-9.8c0-2.55-1.47-3.57-3.24-3.57-2.13,0-3.29,1.53-3.29,3.63v9.74h-4.1Z" transform="translate(-53.97 -299.62)"/><path class="cls-1" d="M669.39,313.44c0-4.6,2.76-7.83,7.39-7.83,4.2,0,6.75,2.66,6.84,5.86h-3.8A2.94,2.94,0,0,0,677,308.9c-2.14,0-3.44,1.75-3.44,4.59v1.31c0,2.93,1.33,4.71,3.46,4.71a2.7,2.7,0,0,0,2.91-2.38h3.8c-.34,3.71-3,5.69-6.93,5.69-4.59,0-7.38-3.17-7.38-8Z" transform="translate(-53.97 -299.62)"/><path class="cls-1" d="M686.88,305.91H691v2.28h.17a4,4,0,0,1,3.88-2.53,7.22,7.22,0,0,1,1.32.11v3.57a7,7,0,0,0-1.63-.14c-2.71,0-3.65,1.62-3.65,3.85v9.47h-4.21Z" transform="translate(-53.97 -299.62)"/><path class="cls-1" d="M708.67,322.05l-.42,1.14c-1.44,3.82-3.44,5.15-7,5.15a11.65,11.65,0,0,1-2.1-.17v-3a10.74,10.74,0,0,0,1.35.09c1.87,0,2.74-.61,3-2.14l.16-.6-5.76-16.64h4.55L706,318.79h.16l3.61-12.88h4.37C713,309.67,708.71,322,708.67,322.05Z" transform="translate(-53.97 -299.62)"/><path class="cls-1" d="M721,320.12h-.17V328h-4.14V305.91h4.06v2.47h.17a5.2,5.2,0,0,1,4.81-2.69c3.69,0,6.26,2.77,6.26,7.8v1.42c0,5-2.55,7.83-6.33,7.83A5,5,0,0,1,721,320.12Zm6.78-5.4v-1.09c0-3-1.3-4.65-3.43-4.65s-3.55,1.75-3.55,4.63v1.11c0,2.95,1.4,4.73,3.6,4.73C726.35,319.45,727.73,317.82,727.73,314.72Z" transform="translate(-53.97 -299.62)"/><path class="cls-1" d="M736.7,301.93h4v4h3.22v3.19h-3.22v8.19c0,1.66.7,2.16,2.41,2.16.34,0,.69,0,.87,0v3.05a10.36,10.36,0,0,1-1.87.14c-4.14,0-5.5-1.39-5.5-4.79V309.1h-2.35v-3.19h2.43Z" transform="translate(-53.97 -299.62)"/><path class="cls-1" d="M749.69,299.62a2.17,2.17,0,1,1-2.33,2.17A2.21,2.21,0,0,1,749.69,299.62Zm-2.05,6.29h4.12v16.61h-4.12Z" transform="translate(-53.97 -299.62)"/><path class="cls-1" d="M770.55,313.55v1.22c0,4.84-2.7,8.05-7.6,8.05s-7.61-3.21-7.61-8v-1.23c0-4.58,2.71-7.95,7.61-7.95S770.55,309,770.55,313.55Zm-11,0v1.28c0,2.62,1,4.78,3.44,4.78s3.43-2.15,3.43-4.78v-1.28c0-2.71-1-4.74-3.43-4.74S759.51,310.86,759.51,313.55Z" transform="translate(-53.97 -299.62)"/><path class="cls-1" d="M774,305.91h4v2.43h.18a5.1,5.1,0,0,1,4.82-2.7c3.38,0,5.74,2.12,5.74,6.19v10.69h-4.11v-9.8c0-2.55-1.48-3.57-3.24-3.57-2.13,0-3.29,1.53-3.29,3.63v9.74H774Z" transform="translate(-53.97 -299.62)"/><path class="cls-1" d="M337.15,423.61l6.47,9.11h-2.11l-5.58-8-2,2.17v5.81h-1.64v-16h1.64v8H334l7.33-8h2Z" transform="translate(-53.97 -299.62)"/><path class="cls-1" d="M344.83,427.23v-1.4c0-3.3,1.79-5.56,4.93-5.56s4.93,2.25,4.93,5.69v1h-8.23v.29c0,2.57,1.27,4.26,3.44,4.26a2.89,2.89,0,0,0,3-2h1.64a4.41,4.41,0,0,1-4.67,3.42C346.71,432.92,344.83,430.7,344.83,427.23Zm8.23-1.65v0c0-2.23-1.31-3.87-3.3-3.87s-3.3,1.64-3.3,3.87v0Z" transform="translate(-53.97 -299.62)"/><path class="cls-1" d="M362.45,432.83l-.37,1c-.89,2.36-2,3.13-3.88,3.13a5.19,5.19,0,0,1-1.05-.1v-1.36a7.66,7.66,0,0,0,.89.05,2.22,2.22,0,0,0,2.44-1.83l.26-.82-4.57-12.43H358l3.58,10.38h.06l3.55-10.38h1.72Z" transform="translate(-53.97 -299.62)"/><path class="cls-1" d="M927.15,423.61l6.47,9.11h-2.11l-5.58-8-2,2.17v5.81h-1.64v-16h1.64v8H924l7.33-8h2Z" transform="translate(-53.97 -299.62)"/><path class="cls-1" d="M934.83,427.23v-1.4c0-3.3,1.79-5.56,4.93-5.56s4.93,2.25,4.93,5.69v1h-8.23v.29c0,2.57,1.27,4.26,3.44,4.26a2.89,2.89,0,0,0,3-2h1.64a4.41,4.41,0,0,1-4.67,3.42C936.71,432.92,934.83,430.7,934.83,427.23Zm8.23-1.65v0c0-2.23-1.31-3.87-3.3-3.87s-3.3,1.64-3.3,3.87v0Z" transform="translate(-53.97 -299.62)"/><path class="cls-1" d="M952.45,432.83l-.37,1c-.89,2.36-2,3.13-3.88,3.13a5.19,5.19,0,0,1-1.05-.1v-1.36a7.66,7.66,0,0,0,.89.05,2.22,2.22,0,0,0,2.44-1.83l.26-.82-4.57-12.43H948l3.58,10.38h.06l3.55-10.38h1.72Z" transform="translate(-53.97 -299.62)"/></svg>